<mxfile host="app.diagrams.net" modified="2024-04-04T17:20:27.398Z" agent="Mozilla/5.0 (Macintosh; Intel Mac OS X 10_15_7) AppleWebKit/537.36 (KHTML, like Gecko) Chrome/123.0.0.0 Safari/537.36" etag="uyRxHQxgVXHoifEg8BVb" version="24.2.1" type="device">
  <diagram name="Page-1" id="McuhlYQimCn3ccWFDj5Z">
    <mxGraphModel dx="1122" dy="728" grid="1" gridSize="10" guides="1" tooltips="1" connect="1" arrows="1" fold="1" page="1" pageScale="1" pageWidth="827" pageHeight="1169" math="0" shadow="0">
      <root>
        <mxCell id="0" />
        <mxCell id="1" parent="0" />
        <mxCell id="IdqoX5B3HeQjThElPdzE-3" style="edgeStyle=orthogonalEdgeStyle;rounded=0;orthogonalLoop=1;jettySize=auto;html=1;entryX=0.5;entryY=0;entryDx=0;entryDy=0;" parent="1" source="IdqoX5B3HeQjThElPdzE-1" target="IdqoX5B3HeQjThElPdzE-2" edge="1">
          <mxGeometry relative="1" as="geometry" />
        </mxCell>
        <mxCell id="IdqoX5B3HeQjThElPdzE-1" value="&lt;font style=&quot;font-size: 49px;&quot;&gt;PROJECT&lt;/font&gt;" style="rounded=0;whiteSpace=wrap;html=1;fillColor=#ffe6cc;strokeColor=#d79b00;" parent="1" vertex="1">
          <mxGeometry x="200" y="40" width="360" height="80" as="geometry" />
        </mxCell>
        <mxCell id="IdqoX5B3HeQjThElPdzE-2" value="&lt;font style=&quot;font-size: 36px;&quot;&gt;Main&lt;/font&gt;" style="rounded=0;whiteSpace=wrap;html=1;fillColor=#dae8fc;strokeColor=#6c8ebf;" parent="1" vertex="1">
          <mxGeometry x="200" y="220" width="120" height="60" as="geometry" />
        </mxCell>
        <mxCell id="IdqoX5B3HeQjThElPdzE-4" value="Diary" style="shape=table;startSize=30;container=1;collapsible=0;childLayout=tableLayout;fixedRows=1;rowLines=0;fontStyle=0;strokeColor=#005700;fontSize=16;fillColor=#008a00;fontColor=#ffffff;" parent="1" vertex="1">
          <mxGeometry x="400" y="260" width="140" height="160" as="geometry" />
        </mxCell>
        <mxCell id="IdqoX5B3HeQjThElPdzE-5" value="" style="shape=tableRow;horizontal=0;startSize=0;swimlaneHead=0;swimlaneBody=0;top=0;left=0;bottom=0;right=0;collapsible=0;dropTarget=0;fillColor=#60a917;points=[[0,0.5],[1,0.5]];portConstraint=eastwest;strokeColor=#2D7600;fontSize=16;fontColor=#ffffff;" parent="IdqoX5B3HeQjThElPdzE-4" vertex="1">
          <mxGeometry y="30" width="140" height="50" as="geometry" />
        </mxCell>
        <mxCell id="IdqoX5B3HeQjThElPdzE-6" value="1" style="shape=partialRectangle;html=1;whiteSpace=wrap;connectable=0;fillColor=#008a00;top=0;left=0;bottom=0;right=0;overflow=hidden;pointerEvents=1;strokeColor=#005700;fontSize=16;fontColor=#ffffff;" parent="IdqoX5B3HeQjThElPdzE-5" vertex="1">
          <mxGeometry width="31" height="50" as="geometry">
            <mxRectangle width="31" height="50" as="alternateBounds" />
          </mxGeometry>
        </mxCell>
        <mxCell id="IdqoX5B3HeQjThElPdzE-7" value="Title" style="shape=partialRectangle;html=1;whiteSpace=wrap;connectable=0;fillColor=#60a917;top=0;left=0;bottom=0;right=0;align=left;spacingLeft=6;overflow=hidden;strokeColor=#2D7600;fontSize=16;fontColor=#ffffff;" parent="IdqoX5B3HeQjThElPdzE-5" vertex="1">
          <mxGeometry x="31" width="109" height="50" as="geometry">
            <mxRectangle width="109" height="50" as="alternateBounds" />
          </mxGeometry>
        </mxCell>
        <mxCell id="IdqoX5B3HeQjThElPdzE-8" value="" style="shape=tableRow;horizontal=0;startSize=0;swimlaneHead=0;swimlaneBody=0;top=0;left=0;bottom=0;right=0;collapsible=0;dropTarget=0;fillColor=#60a917;points=[[0,0.5],[1,0.5]];portConstraint=eastwest;strokeColor=#2D7600;fontSize=16;fontColor=#ffffff;" parent="IdqoX5B3HeQjThElPdzE-4" vertex="1">
          <mxGeometry y="80" width="140" height="20" as="geometry" />
        </mxCell>
        <mxCell id="IdqoX5B3HeQjThElPdzE-9" value="2" style="shape=partialRectangle;html=1;whiteSpace=wrap;connectable=0;fillColor=#008a00;top=0;left=0;bottom=0;right=0;overflow=hidden;strokeColor=#005700;fontSize=16;fontColor=#ffffff;" parent="IdqoX5B3HeQjThElPdzE-8" vertex="1">
          <mxGeometry width="31" height="20" as="geometry">
            <mxRectangle width="31" height="20" as="alternateBounds" />
          </mxGeometry>
        </mxCell>
        <mxCell id="IdqoX5B3HeQjThElPdzE-10" value="Text" style="shape=partialRectangle;html=1;whiteSpace=wrap;connectable=0;fillColor=#60a917;top=0;left=0;bottom=0;right=0;align=left;spacingLeft=6;overflow=hidden;strokeColor=#2D7600;fontSize=16;fontColor=#ffffff;" parent="IdqoX5B3HeQjThElPdzE-8" vertex="1">
          <mxGeometry x="31" width="109" height="20" as="geometry">
            <mxRectangle width="109" height="20" as="alternateBounds" />
          </mxGeometry>
        </mxCell>
        <mxCell id="IdqoX5B3HeQjThElPdzE-11" value="" style="shape=tableRow;horizontal=0;startSize=0;swimlaneHead=0;swimlaneBody=0;top=0;left=0;bottom=0;right=0;collapsible=0;dropTarget=0;fillColor=#60a917;points=[[0,0.5],[1,0.5]];portConstraint=eastwest;strokeColor=#2D7600;fontSize=16;fontColor=#ffffff;" parent="IdqoX5B3HeQjThElPdzE-4" vertex="1">
          <mxGeometry y="100" width="140" height="60" as="geometry" />
        </mxCell>
        <mxCell id="IdqoX5B3HeQjThElPdzE-12" value="3" style="shape=partialRectangle;html=1;whiteSpace=wrap;connectable=0;fillColor=#008a00;top=0;left=0;bottom=0;right=0;overflow=hidden;strokeColor=#005700;fontSize=16;fontColor=#ffffff;" parent="IdqoX5B3HeQjThElPdzE-11" vertex="1">
          <mxGeometry width="31" height="60" as="geometry">
            <mxRectangle width="31" height="60" as="alternateBounds" />
          </mxGeometry>
        </mxCell>
        <mxCell id="IdqoX5B3HeQjThElPdzE-13" value="Date of Register" style="shape=partialRectangle;html=1;whiteSpace=wrap;connectable=0;fillColor=#60a917;top=0;left=0;bottom=0;right=0;align=left;spacingLeft=6;overflow=hidden;strokeColor=#2D7600;fontSize=16;fontColor=#ffffff;" parent="IdqoX5B3HeQjThElPdzE-11" vertex="1">
          <mxGeometry x="31" width="109" height="60" as="geometry">
            <mxRectangle width="109" height="60" as="alternateBounds" />
          </mxGeometry>
        </mxCell>
        <mxCell id="IdqoX5B3HeQjThElPdzE-17" value="&lt;font style=&quot;font-size: 23px;&quot;&gt;Title&lt;/font&gt;" style="rounded=1;whiteSpace=wrap;html=1;fillColor=#d5e8d4;strokeColor=#82b366;" parent="1" vertex="1">
          <mxGeometry x="155" y="770" width="80" height="50" as="geometry" />
        </mxCell>
        <mxCell id="IdqoX5B3HeQjThElPdzE-18" value="&lt;font style=&quot;font-size: 23px;&quot;&gt;Text&lt;/font&gt;" style="rounded=1;whiteSpace=wrap;html=1;fillColor=#d5e8d4;strokeColor=#82b366;" parent="1" vertex="1">
          <mxGeometry x="155" y="830" width="80" height="50" as="geometry" />
        </mxCell>
        <mxCell id="IdqoX5B3HeQjThElPdzE-19" value="&lt;font style=&quot;font-size: 23px;&quot;&gt;Date of register&lt;/font&gt;" style="rounded=1;whiteSpace=wrap;html=1;fillColor=#d5e8d4;strokeColor=#82b366;" parent="1" vertex="1">
          <mxGeometry x="150" y="900" width="90" height="60" as="geometry" />
        </mxCell>
        <mxCell id="IdqoX5B3HeQjThElPdzE-20" value="" style="endArrow=classic;html=1;rounded=0;exitX=0;exitY=0.5;exitDx=0;exitDy=0;entryX=0;entryY=0.5;entryDx=0;entryDy=0;" parent="1" source="IdqoX5B3HeQjThElPdzE-23" edge="1">
          <mxGeometry width="50" height="50" relative="1" as="geometry">
            <mxPoint x="125" y="710" as="sourcePoint" />
            <mxPoint x="150" y="930" as="targetPoint" />
            <Array as="points">
              <mxPoint x="95" y="710" />
              <mxPoint x="95" y="810" />
              <mxPoint x="95" y="930" />
            </Array>
          </mxGeometry>
        </mxCell>
        <mxCell id="IdqoX5B3HeQjThElPdzE-21" value="" style="endArrow=classic;html=1;rounded=0;entryX=0;entryY=0.5;entryDx=0;entryDy=0;" parent="1" target="IdqoX5B3HeQjThElPdzE-17" edge="1">
          <mxGeometry width="50" height="50" relative="1" as="geometry">
            <mxPoint x="95" y="795" as="sourcePoint" />
            <mxPoint x="295" y="940" as="targetPoint" />
          </mxGeometry>
        </mxCell>
        <mxCell id="IdqoX5B3HeQjThElPdzE-22" value="" style="endArrow=classic;html=1;rounded=0;entryX=0;entryY=0.5;entryDx=0;entryDy=0;" parent="1" edge="1">
          <mxGeometry width="50" height="50" relative="1" as="geometry">
            <mxPoint x="95" y="854.5" as="sourcePoint" />
            <mxPoint x="155" y="854.5" as="targetPoint" />
          </mxGeometry>
        </mxCell>
        <mxCell id="IdqoX5B3HeQjThElPdzE-23" value="&lt;font style=&quot;font-size: 38px;&quot;&gt;Note&lt;/font&gt;" style="rounded=0;whiteSpace=wrap;html=1;fillColor=#dae8fc;strokeColor=#6c8ebf;" parent="1" vertex="1">
          <mxGeometry x="145" y="680" width="120" height="60" as="geometry" />
        </mxCell>
        <mxCell id="IdqoX5B3HeQjThElPdzE-31" style="edgeStyle=orthogonalEdgeStyle;rounded=0;orthogonalLoop=1;jettySize=auto;html=1;entryX=0.5;entryY=0;entryDx=0;entryDy=0;" parent="1" source="IdqoX5B3HeQjThElPdzE-28" target="IdqoX5B3HeQjThElPdzE-30" edge="1">
          <mxGeometry relative="1" as="geometry" />
        </mxCell>
        <mxCell id="IdqoX5B3HeQjThElPdzE-47" style="edgeStyle=orthogonalEdgeStyle;rounded=0;orthogonalLoop=1;jettySize=auto;html=1;entryX=0.5;entryY=1;entryDx=0;entryDy=0;" parent="1" source="IdqoX5B3HeQjThElPdzE-28" target="IdqoX5B3HeQjThElPdzE-48" edge="1">
          <mxGeometry relative="1" as="geometry">
            <mxPoint x="840" y="520" as="targetPoint" />
          </mxGeometry>
        </mxCell>
        <mxCell id="IdqoX5B3HeQjThElPdzE-28" value="&lt;font style=&quot;font-size: 19px;&quot;&gt;NoteManager&lt;/font&gt;" style="rounded=0;whiteSpace=wrap;html=1;fillColor=#dae8fc;strokeColor=#6c8ebf;" parent="1" vertex="1">
          <mxGeometry x="600" y="580" width="120" height="60" as="geometry" />
        </mxCell>
        <mxCell id="IdqoX5B3HeQjThElPdzE-33" style="edgeStyle=orthogonalEdgeStyle;rounded=0;orthogonalLoop=1;jettySize=auto;html=1;entryX=0.5;entryY=0;entryDx=0;entryDy=0;" parent="1" source="IdqoX5B3HeQjThElPdzE-30" target="IdqoX5B3HeQjThElPdzE-32" edge="1">
          <mxGeometry relative="1" as="geometry" />
        </mxCell>
        <mxCell id="IdqoX5B3HeQjThElPdzE-30" value="&lt;font style=&quot;font-size: 28px;&quot;&gt;Add&lt;/font&gt;" style="rounded=1;whiteSpace=wrap;html=1;fillColor=#f8cecc;strokeColor=#b85450;" parent="1" vertex="1">
          <mxGeometry x="800" y="680" width="90" height="50" as="geometry" />
        </mxCell>
        <mxCell id="IdqoX5B3HeQjThElPdzE-45" style="edgeStyle=orthogonalEdgeStyle;rounded=0;orthogonalLoop=1;jettySize=auto;html=1;entryX=0.5;entryY=0;entryDx=0;entryDy=0;" parent="1" source="IdqoX5B3HeQjThElPdzE-32" target="IdqoX5B3HeQjThElPdzE-35" edge="1">
          <mxGeometry relative="1" as="geometry" />
        </mxCell>
        <mxCell id="IdqoX5B3HeQjThElPdzE-32" value="&lt;font style=&quot;font-size: 19px;&quot;&gt;User&lt;/font&gt;" style="rounded=1;whiteSpace=wrap;html=1;fillColor=#d5e8d4;strokeColor=#82b366;" parent="1" vertex="1">
          <mxGeometry x="960" y="770" width="60" height="30" as="geometry" />
        </mxCell>
        <mxCell id="IdqoX5B3HeQjThElPdzE-35" value="Diary" style="shape=table;startSize=30;container=1;collapsible=0;childLayout=tableLayout;fixedRows=1;rowLines=0;fontStyle=0;strokeColor=#005700;fontSize=16;fillColor=#008a00;fontColor=#ffffff;" parent="1" vertex="1">
          <mxGeometry x="690" y="880" width="140" height="160" as="geometry" />
        </mxCell>
        <mxCell id="IdqoX5B3HeQjThElPdzE-36" value="" style="shape=tableRow;horizontal=0;startSize=0;swimlaneHead=0;swimlaneBody=0;top=0;left=0;bottom=0;right=0;collapsible=0;dropTarget=0;fillColor=#60a917;points=[[0,0.5],[1,0.5]];portConstraint=eastwest;strokeColor=#2D7600;fontSize=16;fontColor=#ffffff;" parent="IdqoX5B3HeQjThElPdzE-35" vertex="1">
          <mxGeometry y="30" width="140" height="50" as="geometry" />
        </mxCell>
        <mxCell id="IdqoX5B3HeQjThElPdzE-37" value="1" style="shape=partialRectangle;html=1;whiteSpace=wrap;connectable=0;fillColor=#008a00;top=0;left=0;bottom=0;right=0;overflow=hidden;pointerEvents=1;strokeColor=#005700;fontSize=16;fontColor=#ffffff;" parent="IdqoX5B3HeQjThElPdzE-36" vertex="1">
          <mxGeometry width="31" height="50" as="geometry">
            <mxRectangle width="31" height="50" as="alternateBounds" />
          </mxGeometry>
        </mxCell>
        <mxCell id="IdqoX5B3HeQjThElPdzE-38" value="Title 1" style="shape=partialRectangle;html=1;whiteSpace=wrap;connectable=0;fillColor=#60a917;top=0;left=0;bottom=0;right=0;align=left;spacingLeft=6;overflow=hidden;strokeColor=#2D7600;fontSize=16;fontColor=#ffffff;" parent="IdqoX5B3HeQjThElPdzE-36" vertex="1">
          <mxGeometry x="31" width="109" height="50" as="geometry">
            <mxRectangle width="109" height="50" as="alternateBounds" />
          </mxGeometry>
        </mxCell>
        <mxCell id="IdqoX5B3HeQjThElPdzE-39" value="" style="shape=tableRow;horizontal=0;startSize=0;swimlaneHead=0;swimlaneBody=0;top=0;left=0;bottom=0;right=0;collapsible=0;dropTarget=0;fillColor=#60a917;points=[[0,0.5],[1,0.5]];portConstraint=eastwest;strokeColor=#2D7600;fontSize=16;fontColor=#ffffff;" parent="IdqoX5B3HeQjThElPdzE-35" vertex="1">
          <mxGeometry y="80" width="140" height="20" as="geometry" />
        </mxCell>
        <mxCell id="IdqoX5B3HeQjThElPdzE-40" value="2" style="shape=partialRectangle;html=1;whiteSpace=wrap;connectable=0;fillColor=#008a00;top=0;left=0;bottom=0;right=0;overflow=hidden;strokeColor=#005700;fontSize=16;fontColor=#ffffff;" parent="IdqoX5B3HeQjThElPdzE-39" vertex="1">
          <mxGeometry width="31" height="20" as="geometry">
            <mxRectangle width="31" height="20" as="alternateBounds" />
          </mxGeometry>
        </mxCell>
        <mxCell id="IdqoX5B3HeQjThElPdzE-41" value="Text 1" style="shape=partialRectangle;html=1;whiteSpace=wrap;connectable=0;fillColor=#60a917;top=0;left=0;bottom=0;right=0;align=left;spacingLeft=6;overflow=hidden;strokeColor=#2D7600;fontSize=16;fontColor=#ffffff;" parent="IdqoX5B3HeQjThElPdzE-39" vertex="1">
          <mxGeometry x="31" width="109" height="20" as="geometry">
            <mxRectangle width="109" height="20" as="alternateBounds" />
          </mxGeometry>
        </mxCell>
        <mxCell id="IdqoX5B3HeQjThElPdzE-42" value="" style="shape=tableRow;horizontal=0;startSize=0;swimlaneHead=0;swimlaneBody=0;top=0;left=0;bottom=0;right=0;collapsible=0;dropTarget=0;fillColor=#60a917;points=[[0,0.5],[1,0.5]];portConstraint=eastwest;strokeColor=#2D7600;fontSize=16;fontColor=#ffffff;" parent="IdqoX5B3HeQjThElPdzE-35" vertex="1">
          <mxGeometry y="100" width="140" height="60" as="geometry" />
        </mxCell>
        <mxCell id="IdqoX5B3HeQjThElPdzE-43" value="3" style="shape=partialRectangle;html=1;whiteSpace=wrap;connectable=0;fillColor=#008a00;top=0;left=0;bottom=0;right=0;overflow=hidden;strokeColor=#005700;fontSize=16;fontColor=#ffffff;" parent="IdqoX5B3HeQjThElPdzE-42" vertex="1">
          <mxGeometry width="31" height="60" as="geometry">
            <mxRectangle width="31" height="60" as="alternateBounds" />
          </mxGeometry>
        </mxCell>
        <mxCell id="IdqoX5B3HeQjThElPdzE-44" value="Date of Register 1" style="shape=partialRectangle;html=1;whiteSpace=wrap;connectable=0;fillColor=#60a917;top=0;left=0;bottom=0;right=0;align=left;spacingLeft=6;overflow=hidden;strokeColor=#2D7600;fontSize=16;fontColor=#ffffff;" parent="IdqoX5B3HeQjThElPdzE-42" vertex="1">
          <mxGeometry x="31" width="109" height="60" as="geometry">
            <mxRectangle width="109" height="60" as="alternateBounds" />
          </mxGeometry>
        </mxCell>
        <mxCell id="IdqoX5B3HeQjThElPdzE-51" style="edgeStyle=orthogonalEdgeStyle;rounded=0;orthogonalLoop=1;jettySize=auto;html=1;entryX=1;entryY=0.5;entryDx=0;entryDy=0;" parent="1" source="IdqoX5B3HeQjThElPdzE-48" target="IdqoX5B3HeQjThElPdzE-50" edge="1">
          <mxGeometry relative="1" as="geometry" />
        </mxCell>
        <mxCell id="IdqoX5B3HeQjThElPdzE-48" value="&lt;font style=&quot;font-size: 22px;&quot;&gt;Remove&lt;/font&gt;" style="rounded=1;whiteSpace=wrap;html=1;fillColor=#f8cecc;strokeColor=#b85450;" parent="1" vertex="1">
          <mxGeometry x="795" y="470" width="100" height="50" as="geometry" />
        </mxCell>
        <mxCell id="IdqoX5B3HeQjThElPdzE-53" style="edgeStyle=orthogonalEdgeStyle;rounded=0;orthogonalLoop=1;jettySize=auto;html=1;entryX=0;entryY=0.5;entryDx=0;entryDy=0;" parent="1" source="IdqoX5B3HeQjThElPdzE-50" target="IdqoX5B3HeQjThElPdzE-52" edge="1">
          <mxGeometry relative="1" as="geometry">
            <Array as="points">
              <mxPoint x="695" y="310" />
            </Array>
          </mxGeometry>
        </mxCell>
        <mxCell id="IdqoX5B3HeQjThElPdzE-50" value="&lt;font style=&quot;font-size: 19px;&quot;&gt;Name of Title&lt;/font&gt;" style="rounded=1;whiteSpace=wrap;html=1;fillColor=#d5e8d4;strokeColor=#82b366;" parent="1" vertex="1">
          <mxGeometry x="660" y="400" width="70" height="40" as="geometry" />
        </mxCell>
        <mxCell id="IdqoX5B3HeQjThElPdzE-55" style="edgeStyle=orthogonalEdgeStyle;rounded=0;orthogonalLoop=1;jettySize=auto;html=1;entryX=0.5;entryY=0;entryDx=0;entryDy=0;" parent="1" source="IdqoX5B3HeQjThElPdzE-52" target="IdqoX5B3HeQjThElPdzE-54" edge="1">
          <mxGeometry relative="1" as="geometry" />
        </mxCell>
        <mxCell id="IdqoX5B3HeQjThElPdzE-52" value="&lt;font style=&quot;font-size: 15px;&quot;&gt;FindByTitlte&lt;/font&gt;" style="rounded=1;whiteSpace=wrap;html=1;fillColor=#f8cecc;strokeColor=#b85450;" parent="1" vertex="1">
          <mxGeometry x="795" y="280" width="105" height="60" as="geometry" />
        </mxCell>
        <mxCell id="IdqoX5B3HeQjThElPdzE-56" style="edgeStyle=orthogonalEdgeStyle;rounded=0;orthogonalLoop=1;jettySize=auto;html=1;entryX=1;entryY=0.5;entryDx=0;entryDy=0;" parent="1" source="IdqoX5B3HeQjThElPdzE-54" target="IdqoX5B3HeQjThElPdzE-48" edge="1">
          <mxGeometry relative="1" as="geometry" />
        </mxCell>
        <mxCell id="IdqoX5B3HeQjThElPdzE-54" value="&lt;font style=&quot;font-size: 19px;&quot;&gt;User&lt;/font&gt;" style="rounded=1;whiteSpace=wrap;html=1;fillColor=#d5e8d4;strokeColor=#82b366;" parent="1" vertex="1">
          <mxGeometry x="940" y="390" width="60" height="30" as="geometry" />
        </mxCell>
        <mxCell id="j3LxLj0jkTJHPEQkftoL-1" value="" style="endArrow=none;html=1;rounded=0;exitX=1;exitY=0.5;exitDx=0;exitDy=0;entryX=0.5;entryY=0;entryDx=0;entryDy=0;" edge="1" parent="1" source="IdqoX5B3HeQjThElPdzE-2" target="IdqoX5B3HeQjThElPdzE-4">
          <mxGeometry width="50" height="50" relative="1" as="geometry">
            <mxPoint x="430" y="460" as="sourcePoint" />
            <mxPoint x="480" y="410" as="targetPoint" />
            <Array as="points">
              <mxPoint x="380" y="250" />
              <mxPoint x="380" y="210" />
              <mxPoint x="470" y="210" />
            </Array>
          </mxGeometry>
        </mxCell>
        <mxCell id="j3LxLj0jkTJHPEQkftoL-7" value="" style="edgeStyle=orthogonalEdgeStyle;rounded=0;orthogonalLoop=1;jettySize=auto;html=1;" edge="1" parent="1" source="j3LxLj0jkTJHPEQkftoL-3" target="j3LxLj0jkTJHPEQkftoL-5">
          <mxGeometry relative="1" as="geometry" />
        </mxCell>
        <mxCell id="j3LxLj0jkTJHPEQkftoL-3" value="&lt;font style=&quot;font-size: 38px;&quot;&gt;Diary&lt;/font&gt;" style="rounded=0;whiteSpace=wrap;html=1;fillColor=#dae8fc;strokeColor=#6c8ebf;" vertex="1" parent="1">
          <mxGeometry x="360" y="840" width="120" height="60" as="geometry" />
        </mxCell>
        <mxCell id="j3LxLj0jkTJHPEQkftoL-4" value="" style="endArrow=classic;startArrow=classic;html=1;rounded=0;exitX=1;exitY=0.5;exitDx=0;exitDy=0;entryX=0;entryY=0.5;entryDx=0;entryDy=0;" edge="1" parent="1" source="IdqoX5B3HeQjThElPdzE-23" target="j3LxLj0jkTJHPEQkftoL-3">
          <mxGeometry width="50" height="50" relative="1" as="geometry">
            <mxPoint x="440" y="750" as="sourcePoint" />
            <mxPoint x="490" y="700" as="targetPoint" />
            <Array as="points">
              <mxPoint x="320" y="710" />
              <mxPoint x="320" y="870" />
            </Array>
          </mxGeometry>
        </mxCell>
        <mxCell id="j3LxLj0jkTJHPEQkftoL-5" value="&lt;font style=&quot;font-size: 23px;&quot;&gt;List&lt;br&gt;Note&lt;/font&gt;" style="rounded=1;whiteSpace=wrap;html=1;fillColor=#d5e8d4;strokeColor=#82b366;" vertex="1" parent="1">
          <mxGeometry x="380" y="970" width="80" height="60" as="geometry" />
        </mxCell>
        <mxCell id="j3LxLj0jkTJHPEQkftoL-8" value="" style="endArrow=classic;html=1;rounded=0;exitX=0.5;exitY=1;exitDx=0;exitDy=0;entryX=0.5;entryY=0;entryDx=0;entryDy=0;" edge="1" parent="1" source="IdqoX5B3HeQjThElPdzE-2" target="IdqoX5B3HeQjThElPdzE-23">
          <mxGeometry width="50" height="50" relative="1" as="geometry">
            <mxPoint x="380" y="510" as="sourcePoint" />
            <mxPoint x="430" y="460" as="targetPoint" />
            <Array as="points">
              <mxPoint x="260" y="480" />
              <mxPoint x="205" y="480" />
            </Array>
          </mxGeometry>
        </mxCell>
        <mxCell id="j3LxLj0jkTJHPEQkftoL-9" value="" style="endArrow=classic;html=1;rounded=0;exitX=0.5;exitY=1;exitDx=0;exitDy=0;entryX=0;entryY=0.5;entryDx=0;entryDy=0;" edge="1" parent="1" source="IdqoX5B3HeQjThElPdzE-2" target="IdqoX5B3HeQjThElPdzE-28">
          <mxGeometry relative="1" as="geometry">
            <mxPoint x="480" y="560" as="sourcePoint" />
            <mxPoint x="580" y="560" as="targetPoint" />
            <Array as="points">
              <mxPoint x="260" y="610" />
              <mxPoint x="400" y="610" />
            </Array>
          </mxGeometry>
        </mxCell>
        <mxCell id="j3LxLj0jkTJHPEQkftoL-10" value="" style="shape=message;html=1;outlineConnect=0;strokeWidth=2;" vertex="1" parent="j3LxLj0jkTJHPEQkftoL-9">
          <mxGeometry width="20" height="14" relative="1" as="geometry">
            <mxPoint x="-10" y="-7" as="offset" />
          </mxGeometry>
        </mxCell>
        <mxCell id="j3LxLj0jkTJHPEQkftoL-11" value="File Path" style="text;html=1;align=center;verticalAlign=middle;whiteSpace=wrap;rounded=0;" vertex="1" parent="1">
          <mxGeometry x="260" y="570" width="60" height="30" as="geometry" />
        </mxCell>
        <mxCell id="j3LxLj0jkTJHPEQkftoL-12" value="" style="endArrow=classic;html=1;rounded=0;exitX=1;exitY=0.5;exitDx=0;exitDy=0;" edge="1" parent="1" source="IdqoX5B3HeQjThElPdzE-28">
          <mxGeometry width="50" height="50" relative="1" as="geometry">
            <mxPoint x="1090" y="660" as="sourcePoint" />
            <mxPoint x="1260" y="540" as="targetPoint" />
            <Array as="points">
              <mxPoint x="1260" y="610" />
            </Array>
          </mxGeometry>
        </mxCell>
        <mxCell id="j3LxLj0jkTJHPEQkftoL-19" style="edgeStyle=orthogonalEdgeStyle;rounded=0;orthogonalLoop=1;jettySize=auto;html=1;entryX=0.5;entryY=1;entryDx=0;entryDy=0;" edge="1" parent="1" source="j3LxLj0jkTJHPEQkftoL-13" target="j3LxLj0jkTJHPEQkftoL-18">
          <mxGeometry relative="1" as="geometry" />
        </mxCell>
        <mxCell id="j3LxLj0jkTJHPEQkftoL-13" value="&lt;font style=&quot;font-size: 22px;&quot;&gt;Load&lt;/font&gt;" style="rounded=1;whiteSpace=wrap;html=1;fillColor=#f8cecc;strokeColor=#b85450;" vertex="1" parent="1">
          <mxGeometry x="1100" y="510" width="100" height="50" as="geometry" />
        </mxCell>
        <mxCell id="j3LxLj0jkTJHPEQkftoL-17" style="edgeStyle=orthogonalEdgeStyle;rounded=0;orthogonalLoop=1;jettySize=auto;html=1;entryX=0.5;entryY=1;entryDx=0;entryDy=0;" edge="1" parent="1" source="j3LxLj0jkTJHPEQkftoL-14" target="j3LxLj0jkTJHPEQkftoL-16">
          <mxGeometry relative="1" as="geometry" />
        </mxCell>
        <mxCell id="j3LxLj0jkTJHPEQkftoL-14" value="&lt;font style=&quot;font-size: 22px;&quot;&gt;Save&lt;/font&gt;" style="rounded=1;whiteSpace=wrap;html=1;fillColor=#f8cecc;strokeColor=#b85450;" vertex="1" parent="1">
          <mxGeometry x="1320" y="510" width="100" height="50" as="geometry" />
        </mxCell>
        <mxCell id="j3LxLj0jkTJHPEQkftoL-15" value="" style="endArrow=classic;startArrow=classic;html=1;rounded=0;exitX=1;exitY=0.5;exitDx=0;exitDy=0;entryX=0;entryY=0.5;entryDx=0;entryDy=0;" edge="1" parent="1" source="j3LxLj0jkTJHPEQkftoL-13" target="j3LxLj0jkTJHPEQkftoL-14">
          <mxGeometry width="50" height="50" relative="1" as="geometry">
            <mxPoint x="1140" y="660" as="sourcePoint" />
            <mxPoint x="1190" y="610" as="targetPoint" />
          </mxGeometry>
        </mxCell>
        <mxCell id="j3LxLj0jkTJHPEQkftoL-16" value="&lt;font color=&quot;#212121&quot; style=&quot;font-size: 19px;&quot;&gt;Xml Element &amp;lt;Note&amp;gt;&lt;/font&gt;" style="rounded=1;whiteSpace=wrap;html=1;fillColor=#60a917;strokeColor=#2D7600;fontColor=#ffffff;" vertex="1" parent="1">
          <mxGeometry x="1315" y="390" width="110" height="60" as="geometry" />
        </mxCell>
        <mxCell id="j3LxLj0jkTJHPEQkftoL-18" value="&lt;span style=&quot;font-size: 19px;&quot;&gt;&lt;font color=&quot;#050505&quot;&gt;Load User&lt;/font&gt;&lt;/span&gt;&lt;div&gt;&lt;span style=&quot;font-size: 19px;&quot;&gt;&lt;font color=&quot;#050505&quot;&gt;to -&amp;gt;&lt;/font&gt;&lt;/span&gt;&lt;/div&gt;" style="rounded=1;whiteSpace=wrap;html=1;fillColor=#60a917;strokeColor=#2D7600;fontColor=#ffffff;" vertex="1" parent="1">
          <mxGeometry x="1095" y="390" width="110" height="60" as="geometry" />
        </mxCell>
        <mxCell id="j3LxLj0jkTJHPEQkftoL-20" value="" style="endArrow=classic;html=1;rounded=0;" edge="1" parent="1">
          <mxGeometry width="50" height="50" relative="1" as="geometry">
            <mxPoint x="1260" y="610" as="sourcePoint" />
            <mxPoint x="1260" y="710" as="targetPoint" />
          </mxGeometry>
        </mxCell>
        <mxCell id="j3LxLj0jkTJHPEQkftoL-21" value="&lt;font style=&quot;font-size: 22px;&quot;&gt;Edit by Index&lt;/font&gt;" style="rounded=1;whiteSpace=wrap;html=1;fillColor=#f8cecc;strokeColor=#b85450;" vertex="1" parent="1">
          <mxGeometry x="1215" y="710" width="100" height="50" as="geometry" />
        </mxCell>
        <mxCell id="j3LxLj0jkTJHPEQkftoL-25" value="&lt;font style=&quot;font-size: 22px;&quot;&gt;Edit bu index&lt;/font&gt;" style="rounded=1;whiteSpace=wrap;html=1;fillColor=#f8cecc;strokeColor=#b85450;" vertex="1" parent="1">
          <mxGeometry y="225" width="100" height="50" as="geometry" />
        </mxCell>
        <mxCell id="j3LxLj0jkTJHPEQkftoL-26" value="" style="endArrow=classic;html=1;rounded=0;exitX=0;exitY=0.5;exitDx=0;exitDy=0;entryX=1;entryY=0.5;entryDx=0;entryDy=0;" edge="1" parent="1" source="IdqoX5B3HeQjThElPdzE-2" target="j3LxLj0jkTJHPEQkftoL-25">
          <mxGeometry relative="1" as="geometry">
            <mxPoint x="640" y="370" as="sourcePoint" />
            <mxPoint x="740" y="370" as="targetPoint" />
          </mxGeometry>
        </mxCell>
        <mxCell id="j3LxLj0jkTJHPEQkftoL-27" value="" style="shape=message;html=1;outlineConnect=0;" vertex="1" parent="j3LxLj0jkTJHPEQkftoL-26">
          <mxGeometry width="20" height="14" relative="1" as="geometry">
            <mxPoint x="-10" y="-7" as="offset" />
          </mxGeometry>
        </mxCell>
        <mxCell id="j3LxLj0jkTJHPEQkftoL-28" value="diary" style="text;html=1;align=center;verticalAlign=middle;whiteSpace=wrap;rounded=0;" vertex="1" parent="1">
          <mxGeometry x="120" y="200" width="60" height="30" as="geometry" />
        </mxCell>
        <mxCell id="j3LxLj0jkTJHPEQkftoL-29" value="edit note&lt;div&gt;&lt;br&gt;&lt;/div&gt;" style="text;html=1;align=center;verticalAlign=middle;whiteSpace=wrap;rounded=0;" vertex="1" parent="1">
          <mxGeometry x="120" y="275" width="60" height="30" as="geometry" />
        </mxCell>
        <mxCell id="j3LxLj0jkTJHPEQkftoL-30" value="&lt;font style=&quot;font-size: 36px;&quot;&gt;Main&lt;/font&gt;" style="rounded=0;whiteSpace=wrap;html=1;fillColor=#dae8fc;strokeColor=#6c8ebf;" vertex="1" parent="1">
          <mxGeometry x="1510" y="705" width="120" height="60" as="geometry" />
        </mxCell>
        <mxCell id="j3LxLj0jkTJHPEQkftoL-32" value="" style="shape=message;html=1;outlineConnect=0;" vertex="1" parent="1">
          <mxGeometry x="1409.4117647058824" y="725.4999999999999" width="20" height="14" as="geometry" />
        </mxCell>
        <mxCell id="j3LxLj0jkTJHPEQkftoL-33" value="diary" style="text;html=1;align=center;verticalAlign=middle;whiteSpace=wrap;rounded=0;" vertex="1" parent="1">
          <mxGeometry x="1390" y="682.5" width="60" height="30" as="geometry" />
        </mxCell>
        <mxCell id="j3LxLj0jkTJHPEQkftoL-34" value="edit note&lt;div&gt;&lt;br&gt;&lt;/div&gt;" style="text;html=1;align=center;verticalAlign=middle;whiteSpace=wrap;rounded=0;" vertex="1" parent="1">
          <mxGeometry x="1390" y="757.5" width="60" height="30" as="geometry" />
        </mxCell>
        <mxCell id="j3LxLj0jkTJHPEQkftoL-36" value="" style="endArrow=classic;html=1;rounded=0;exitX=0;exitY=0.5;exitDx=0;exitDy=0;entryX=1;entryY=0.5;entryDx=0;entryDy=0;" edge="1" parent="1" source="j3LxLj0jkTJHPEQkftoL-30" target="j3LxLj0jkTJHPEQkftoL-21">
          <mxGeometry width="50" height="50" relative="1" as="geometry">
            <mxPoint x="1220" y="720" as="sourcePoint" />
            <mxPoint x="1270" y="670" as="targetPoint" />
          </mxGeometry>
        </mxCell>
      </root>
    </mxGraphModel>
  </diagram>
</mxfile>
